<svg width="42" height="22" viewBox="0 0 42 22" fill="none" xmlns="http://www.w3.org/2000/svg">
<rect width="42" height="22" fill="#F5F5F5"/>
<g clip-path="url(#clip0_0_1)">
<rect width="1440" height="1802" transform="translate(-80 -26)" fill="#191A23"/>
<g filter="url(#filter0_b_0_1)">
<rect x="-80" y="-26" width="1440" height="74" fill="#292B3B"/>
<rect x="-79.5" y="-25.5" width="1439" height="73" stroke="#626689" stroke-opacity="0.5"/>
<g filter="url(#filter1_b_0_1)">
<rect x="-15" y="-11.5" width="72" height="45" rx="22.5" fill="#626689" fill-opacity="0.5"/>
<rect x="-14.5" y="-11" width="71" height="44" rx="22" stroke="#626689" stroke-opacity="0.5"/>
<path d="M30.2913 4.97992C30.2913 3.3893 28.9651 2.09973 27.3302 2.09973C26.7392 2.09973 26.1894 2.26845 25.7271 2.55892C25.2647 2.26912 24.715 2.09973 24.124 2.09973C23.2676 2.09973 22.4965 2.45372 21.9556 3.01877C21.4147 2.45372 20.6436 2.09973 19.7872 2.09973C18.6505 2.09973 17.6635 2.72301 17.1673 3.63676C16.671 2.72301 15.684 2.09973 14.5473 2.09973C13.3315 2.09973 12.2875 2.81233 11.8313 3.83194C11.375 2.813 10.3311 2.09973 9.11519 2.09973C7.47959 2.09973 6.15405 3.3893 6.15405 4.97992C6.15405 5.42124 6.25628 5.83941 6.43906 6.21324C6.45802 6.31712 6.48781 6.41769 6.52775 6.51231C6.97118 8.17836 7.747 9.70413 8.78076 11.0116L8.62302 12.2078L8.24526 15.0761L7.95551 17.2721L10.0075 16.4127L12.7168 15.2779L13.8642 14.7969C15.2189 15.3302 16.692 15.6226 18.2315 15.6226C23.8295 15.6226 28.5399 11.7606 29.9359 6.50966C29.9819 6.39983 30.0137 6.28338 30.0313 6.16163C30.1986 5.80103 30.292 5.40139 30.292 4.98058L30.2913 4.97992Z" fill="url(#paint0_linear_0_1)"/>
<path d="M12.7554 15.3701L13.8655 14.9048C15.2212 15.4332 16.6936 15.7226 18.2315 15.7226C23.8747 15.7226 28.6216 11.8311 30.0308 6.54188C30.077 6.43024 30.1094 6.31267 30.1281 6.19052C30.2975 5.82059 30.392 5.41124 30.392 4.98058V4.93847L30.391 4.93751C30.3677 3.30869 29.0032 1.99973 27.3302 1.99973C26.7423 1.99973 26.1937 2.16142 25.727 2.44161C25.2605 2.16206 24.7118 1.99973 24.124 1.99973C23.277 1.99973 22.5102 2.33512 21.9556 2.87667C21.401 2.33512 20.6342 1.99973 19.7872 1.99973C18.677 1.99973 17.7039 2.57561 17.1673 3.43805C16.6306 2.57561 15.6575 1.99973 14.5473 1.99973C13.3669 1.99973 12.3421 2.65025 11.8312 3.6051C11.3203 2.65081 10.2956 1.99973 9.11519 1.99973C7.42699 1.99973 6.05405 3.33148 6.05405 4.97992C6.05405 5.43203 6.1577 5.86084 6.34324 6.24485C6.3631 6.3485 6.39313 6.44921 6.43288 6.54466C6.8764 8.2074 7.64843 9.73144 8.6761 11.0403L8.52388 12.1948L8.52388 12.1948L8.14612 15.063L8.14612 15.0631L7.85637 17.2591L7.8336 17.4316L7.99415 17.3644L10.0461 16.5049L12.7554 15.3702L12.7554 15.3701Z" stroke="#626689" stroke-opacity="0.5" stroke-width="0.2" stroke-miterlimit="10"/>
<path d="M40.4196 2.59789C39.6404 1.62419 38.4394 1 37.0929 1C36.4317 1 35.8054 1.15037 35.2475 1.41835C35.1476 1.46714 35.0504 1.5186 34.9551 1.57406C34.4978 1.83938 34.0948 2.18756 33.7662 2.59789H32.7885C32.8234 3.00488 32.8408 3.41722 32.8408 3.83289C32.8408 4.46443 32.8006 5.08661 32.7221 5.69743C31.8041 12.8802 25.6484 18.4338 18.191 18.4338C15.9714 18.4338 13.8665 17.9419 11.9816 17.0611L8.93115 18.3115C11.6047 20.0136 14.7825 21 18.191 21C25.993 21 32.5833 15.8308 34.7023 8.7415C34.7841 8.79764 34.8686 8.85044 34.9551 8.90056C35.5828 9.26545 36.3137 9.47462 37.0929 9.47462C39.285 9.47462 41.0895 7.82127 41.3195 5.69743C41.3362 5.5464 41.3449 5.39269 41.3449 5.23698C41.3449 4.23922 40.9983 3.32165 40.4196 2.59789ZM37.0667 8.21021C35.5137 8.21021 34.2551 6.95382 34.2551 5.40405C34.2551 4.23387 34.9732 3.23076 35.9938 2.80974C36.2252 2.70548 36.4733 2.63264 36.7341 2.59789C36.8515 2.58185 36.9715 2.57383 37.0936 2.57383C37.2156 2.57383 37.3356 2.58185 37.453 2.59789C38.0236 2.67474 38.5373 2.9307 38.9349 3.30695C39.5136 3.82086 39.8791 4.57002 39.8791 5.40405C39.8791 6.95382 38.6204 8.21021 37.0674 8.21021H37.0667Z" fill="url(#paint1_linear_0_1)"/>
<path d="M40.4976 2.53541L40.4977 2.53544C41.09 3.27623 41.4449 4.21564 41.4449 5.23698C41.4449 5.39633 41.436 5.55363 41.4189 5.7082C41.4189 5.70829 41.4189 5.70837 41.4189 5.70846L41.3195 5.69743C41.0895 7.82127 39.285 9.47462 37.0929 9.47462C36.3137 9.47462 35.5828 9.26545 34.9551 8.90056L40.4976 2.53541ZM40.4976 2.53541C39.7002 1.53896 38.471 0.9 37.0929 0.9C36.4164 0.9 35.7753 1.05387 35.2042 1.32821L35.2036 1.32849C35.1018 1.37819 35.0025 1.43076 34.905 1.48757M40.4976 2.53541L34.7591 8.89873C32.5869 15.9632 25.991 21.1 18.191 21.1C14.763 21.1 11.5666 20.1079 8.87745 18.3958L8.71461 18.2921L8.89322 18.2189L11.9436 16.9686L11.9842 16.9519L12.0239 16.9705C13.8958 17.8452 15.9863 18.3338 18.191 18.3338C25.5976 18.3338 31.7113 12.818 32.623 5.68475L32.623 5.68469C32.7009 5.0781 32.7408 4.46018 32.7408 3.83289C32.7408 3.42001 32.7235 3.01052 32.6889 2.60642L32.6796 2.49789H32.7885H33.7185C34.0491 2.09424 34.4508 1.75101 34.905 1.48757M34.905 1.48757L34.9551 1.57406L34.9048 1.48766C34.9048 1.48763 34.9049 1.4876 34.905 1.48757ZM36.032 2.90218L36.032 2.90223L36.0349 2.90091C36.2577 2.8005 36.4965 2.73044 36.7473 2.69701L36.7477 2.69697C36.8604 2.68156 36.9759 2.67383 37.0936 2.67383C37.2112 2.67383 37.3267 2.68156 37.4394 2.69697L37.4396 2.69699C37.9889 2.77096 38.4833 3.0173 38.8662 3.37959L38.8662 3.37962L38.8685 3.38172C39.4268 3.87753 39.7791 4.59989 39.7791 5.40405C39.7791 6.89841 38.5654 8.11021 37.0674 8.11021H37.0667C35.5688 8.11021 34.3551 6.89841 34.3551 5.40405C34.3551 4.27587 35.0474 3.30834 36.032 2.90218Z" stroke="#626689" stroke-opacity="0.5" stroke-width="0.2" stroke-miterlimit="10"/>
<path d="M3.15037 3.63527C3.15037 3.21253 3.16726 2.79318 3.20104 2.37927H0.698147C0.669565 2.79386 0.655273 3.21321 0.655273 3.63527C0.655273 4.27619 0.688403 4.90895 0.753363 5.53151C0.827417 6.25806 0.944994 6.97102 1.10285 7.66834C1.92459 11.3045 3.8331 14.5016 6.45033 16.862L6.86217 13.6479C4.94066 11.4472 3.64407 8.63957 3.26535 5.53151C3.18935 4.91031 3.15037 4.27755 3.15037 3.63527Z" fill="url(#paint2_linear_0_1)"/>
<path d="M3.30071 2.38741L3.30954 2.27927H3.20104H0.698147H0.604804L0.598384 2.37239C0.569641 2.78931 0.555273 3.21096 0.555273 3.63527C0.555273 4.2796 0.588577 4.91578 0.65389 5.54177C0.728358 6.27233 0.846586 6.98922 1.00531 7.69039C1.8316 11.3467 3.75081 14.562 6.38335 16.9363L6.52523 17.0642L6.54951 16.8747L6.96136 13.6607L6.96708 13.616L6.9375 13.5822C5.02902 11.3964 3.74088 8.60736 3.36462 5.51941L3.36461 5.51937C3.2891 4.9022 3.25037 4.2735 3.25037 3.63527C3.25037 3.21519 3.26716 2.79856 3.30071 2.38741Z" stroke="#626689" stroke-opacity="0.5" stroke-width="0.2" stroke-miterlimit="10"/>
</g>
</g>
</g>
<defs>
<filter id="filter0_b_0_1" x="-84" y="-30" width="1448" height="82" filterUnits="userSpaceOnUse" color-interpolation-filters="sRGB">
<feFlood flood-opacity="0" result="BackgroundImageFix"/>
<feGaussianBlur in="BackgroundImageFix" stdDeviation="2"/>
<feComposite in2="SourceAlpha" operator="in" result="effect1_backgroundBlur_0_1"/>
<feBlend mode="normal" in="SourceGraphic" in2="effect1_backgroundBlur_0_1" result="shape"/>
</filter>
<filter id="filter1_b_0_1" x="-19" y="-15.5" width="80" height="53" filterUnits="userSpaceOnUse" color-interpolation-filters="sRGB">
<feFlood flood-opacity="0" result="BackgroundImageFix"/>
<feGaussianBlur in="BackgroundImageFix" stdDeviation="2"/>
<feComposite in2="SourceAlpha" operator="in" result="effect1_backgroundBlur_0_1"/>
<feBlend mode="normal" in="SourceGraphic" in2="effect1_backgroundBlur_0_1" result="shape"/>
</filter>
<linearGradient id="paint0_linear_0_1" x1="17.0366" y1="-6.2451" x2="34.368" y2="34.413" gradientUnits="userSpaceOnUse">
<stop stop-color="#D64975"/>
<stop offset="1" stop-color="#626689"/>
</linearGradient>
<linearGradient id="paint1_linear_0_1" x1="23.5449" y1="-10" x2="46.0973" y2="43.8965" gradientUnits="userSpaceOnUse">
<stop stop-color="#D64975"/>
<stop offset="1" stop-color="#626689"/>
</linearGradient>
<linearGradient id="paint2_linear_0_1" x1="3.45364" y1="-5.58624" x2="24.1651" y2="7.50258" gradientUnits="userSpaceOnUse">
<stop stop-color="#D64975"/>
<stop offset="1" stop-color="#626689"/>
</linearGradient>
<clipPath id="clip0_0_1">
<rect width="1440" height="1802" fill="white" transform="translate(-80 -26)"/>
</clipPath>
</defs>
</svg>
