<svg width="26" height="14" viewBox="0 0 26 14" fill="none" xmlns="http://www.w3.org/2000/svg">
<g id="LOGO">
<path id="Vector" d="M7.94923 9.72061L8.61693 9.44071C9.45022 9.76348 10.3546 9.94019 11.2989 9.94019C14.7836 9.94019 17.7142 7.53777 18.585 4.27326C18.6134 4.20405 18.6336 4.13142 18.6455 4.05621C18.7504 3.82531 18.8089 3.57005 18.8089 3.30163V3.25954L18.808 3.25866C18.7848 2.24332 17.9317 1.43162 16.8892 1.43162C16.5291 1.43162 16.1924 1.52844 15.9041 1.69686C15.616 1.52882 15.2793 1.43162 14.9192 1.43162C14.4021 1.43162 13.9324 1.6312 13.587 1.95559C13.2415 1.6312 12.7719 1.43162 12.2547 1.43162C11.5811 1.43162 10.9876 1.77004 10.645 2.28276C10.3024 1.77004 9.70893 1.43162 9.03529 1.43162C8.32096 1.43162 7.69709 1.81187 7.36649 2.37758C7.03589 1.81219 6.41206 1.43162 5.69775 1.43162C4.64022 1.43162 3.7784 2.26612 3.7784 3.30122C3.7784 3.58318 3.84265 3.85078 3.95774 4.09065C3.97025 4.15422 3.98878 4.21613 4.01312 4.27503C4.28564 5.29536 4.75853 6.23108 5.38762 7.0358L5.29621 7.72903L5.29621 7.72905L5.06412 9.49131L5.06411 9.49134L4.88609 10.8406L4.86332 11.0131L5.02387 10.9459L6.2846 10.4178L7.9492 9.72062L7.94923 9.72061Z" fill="white" stroke="#6E6E6E" stroke-width="0.2" stroke-miterlimit="10"/>
<path id="Vector_2" d="M25.0095 1.7752L25.0095 1.77523C25.3787 2.23695 25.6 2.82255 25.6 3.45915C25.6 3.55856 25.5944 3.65668 25.5837 3.75309M25.0095 1.7752L21.5238 5.79654L21.574 5.71008L21.5239 5.79661C21.5239 5.7966 21.5239 5.79659 21.5238 5.79657C21.9243 6.02939 22.3907 6.16279 22.8875 6.16279C24.2856 6.16279 25.4368 5.10834 25.5837 3.75309M25.0095 1.7752C24.5126 1.1542 23.7464 0.755927 22.8875 0.755927C22.466 0.755927 22.0664 0.851816 21.7104 1.02282L21.7098 1.0231M25.0095 1.7752L21.7098 1.0231M25.5837 3.75309L25.4843 3.74206L25.5838 3.75283C25.5837 3.75292 25.5837 3.753 25.5837 3.75309ZM5.58473 11.4922L5.63844 11.4079C5.65834 11.4205 5.67828 11.4331 5.69827 11.4457L5.58473 11.4922ZM5.58473 11.4922L5.62266 11.5847L5.68881 11.5576C5.65398 11.536 5.61929 11.5142 5.58473 11.4922ZM21.7098 1.0231C21.6465 1.05401 21.5846 1.08675 21.5238 1.12217M21.7098 1.0231L21.5238 1.12217M21.5238 1.12217C21.2461 1.28329 20.9999 1.49226 20.7961 1.73768L21.5238 1.12217ZM21.5238 1.12217C21.5238 1.12216 21.5238 1.12215 21.5239 1.12214L21.574 1.20864L21.5238 1.12217ZM21.3883 5.71246C21.3986 5.67917 21.4087 5.6458 21.4187 5.61236C21.4473 5.63198 21.4764 5.65094 21.506 5.6693C21.4961 5.70228 21.486 5.73518 21.4757 5.76801C21.4462 5.75011 21.417 5.73162 21.3883 5.71246ZM22.2504 2.06028L22.2504 2.06033L22.2533 2.05901C22.3869 1.99881 22.53 1.95683 22.6803 1.93681L22.6806 1.93676C22.7481 1.92754 22.8173 1.9229 22.8879 1.9229C22.9585 1.9229 23.0277 1.92754 23.0952 1.93676L23.0954 1.93679C23.4246 1.98112 23.721 2.12876 23.9505 2.34597L23.9505 2.34601L23.9529 2.3481C24.288 2.64575 24.4994 3.07924 24.4994 3.56181C24.4994 4.45859 23.771 5.18593 22.8718 5.18593H22.8714C21.9723 5.18593 21.2439 4.45859 21.2439 3.56181C21.2439 2.88484 21.6593 2.3041 22.2504 2.06028Z" fill="white" stroke="#6E6E6E" stroke-width="0.2" stroke-miterlimit="10"/>
<path id="Vector_3" d="M2.16381 1.7115L2.17263 1.60337H2.06414H0.526342H0.432998L0.426579 1.69649C0.408857 1.95355 0.4 2.21349 0.4 2.47507C0.4 2.87225 0.420529 3.26445 0.460794 3.65038C0.506708 4.1008 0.579602 4.5428 0.677459 4.97509C1.1869 7.22932 2.37019 9.21186 3.99355 10.6759L4.13543 10.8039L4.15971 10.6144L4.41275 8.63963L4.41847 8.59502L4.38889 8.56115C3.22133 7.22393 2.43315 5.51753 2.20292 3.62803L2.20291 3.62798C2.15671 3.25035 2.13301 2.86563 2.13301 2.47507C2.13301 2.21799 2.14328 1.96305 2.16381 1.7115Z" fill="white" stroke="#6E6E6E" stroke-width="0.2" stroke-miterlimit="10"/>
</g>
</svg>
