<svg width="523" height="524" viewBox="0 0 523 524" fill="none" xmlns="http://www.w3.org/2000/svg">
<g clip-path="url(#clip0_130_1018)">
<path d="M293.402 66.7296C298.638 58.0617 304.842 48.8069 314.558 45.9766C325.811 42.6989 337.369 49.2102 347.174 55.6354C376.495 74.8514 404.732 95.6759 431.755 118.014L431.726 118.35C410.687 116.898 389.648 115.446 368.61 113.994C353.409 112.944 337.687 111.75 324.254 104.553C319.157 101.821 314.188 98.173 308.412 97.9188C301.235 97.603 294.978 102.62 290.061 107.861C260.973 138.865 252.555 186.278 219.922 213.518C240.5 162.721 265.07 113.638 293.402 66.7296Z" fill="white"/>
<path d="M114.604 329.702C117.82 325.637 119.135 324.685 122.308 320.581C148.143 287.135 172.426 252.559 195.156 216.854C210.596 192.604 225.27 167.888 239.179 142.707C245.8 130.736 252.24 118.67 258.498 106.511C263.355 97.0831 268.103 87.5986 272.743 78.0578C274.07 75.3327 275.359 72.5951 276.642 69.8513C279.665 63.3989 282.631 56.9151 285.817 50.5504C289.446 43.2961 293.865 35.691 300.531 30.8173C303.564 28.5082 307.191 27.1111 310.988 26.7892C316.414 26.4384 321.421 28.6811 326.128 31.1305C360.562 49.1033 392.799 71.6367 421.957 97.2772C451.19 122.975 477.32 152.008 499.813 183.784C500.501 184.767 502.128 183.827 501.434 182.838C498.699 178.966 495.909 175.137 493.066 171.349C469.469 139.914 442.255 111.371 411.988 86.3081C397.002 73.8973 381.311 62.3659 364.993 51.772C356.688 46.3845 348.226 41.2497 339.608 36.3676C335.265 33.9056 330.903 31.475 326.466 29.1948C322.116 26.9583 317.497 24.9474 312.528 24.8723C295.618 24.6092 286.862 43.7785 280.847 56.6771C278.957 60.7365 277.044 64.7833 275.108 68.8177C267.792 84.1343 260.195 99.3111 252.315 114.348C247.452 123.632 242.483 132.862 237.407 142.037C221.611 170.609 204.822 198.603 187.039 226.019C163.482 262.334 140.113 294.415 113.277 328.374C112.538 329.314 113.859 330.655 114.604 329.702Z" fill="white"/>
<path d="M208.197 177.267L183.002 168.043L170.493 163.463C166.419 161.972 162.355 160.274 158.143 159.206C154.42 158.262 150.636 158.107 146.965 159.348C143.726 160.548 140.761 162.388 138.247 164.758C135.678 167.126 133.287 169.681 131.095 172.403C128.372 175.679 125.689 178.989 122.993 182.289C111.869 195.906 100.818 209.582 89.8397 223.318C78.8614 237.053 67.9566 250.847 57.1251 264.699C46.2671 278.585 35.4839 292.529 24.7753 306.531C23.4635 308.246 22.1528 309.962 20.8432 311.679C20.1197 312.628 18.4882 311.693 19.222 310.731C30.0096 296.588 40.8724 282.503 51.8104 268.476C62.7753 254.415 73.8159 240.414 84.9323 226.473C96.0485 212.532 107.24 198.652 118.506 184.831C121.313 181.388 124.124 177.949 126.941 174.514C129.316 171.616 131.665 168.687 134.27 165.99C139.053 161.039 145.028 156.663 152.18 156.545C156.385 156.475 160.455 157.81 164.362 159.225C168.574 160.75 172.776 162.304 176.983 163.844L202.354 173.133L208.696 175.455C209.822 175.867 209.336 177.684 208.197 177.267Z" fill="white"/>
<path d="M139.195 177.359C141.675 174.337 144.357 171.173 148.066 169.946L151.53 170.083C125.166 216.714 89.5588 257.46 46.895 289.82C77.6617 252.333 108.429 214.846 139.195 177.359Z" fill="white"/>
<path d="M307.615 129.08C307.617 133.845 306.45 138.538 304.217 142.746C301.984 146.954 298.753 150.549 294.808 153.215C290.863 155.882 286.324 157.538 281.59 158.039C276.856 158.54 272.072 157.87 267.657 156.088C263.242 154.306 259.332 151.466 256.269 147.819C253.207 144.171 251.086 139.826 250.092 135.166C249.099 130.506 249.263 125.673 250.571 121.092C251.88 116.51 254.291 112.32 257.595 108.89C257.641 108.843 257.688 108.797 257.734 108.75C257.967 108.506 258.2 108.261 258.444 108.028C258.446 108.028 258.447 108.028 258.448 108.027C258.45 108.027 258.451 108.026 258.452 108.025C258.453 108.024 258.454 108.022 258.455 108.021C258.455 108.02 258.456 108.018 258.456 108.016C258.758 107.737 259.06 107.458 259.375 107.19C263.577 103.502 268.752 101.105 274.28 100.285C279.808 99.4651 285.456 100.258 290.546 102.567C295.636 104.877 299.953 108.606 302.98 113.308C306.007 118.01 307.616 123.486 307.615 129.08Z" fill="#2F2E41"/>
<path d="M288.612 153.076C298.136 143.543 298.136 128.088 288.612 118.555C279.089 109.023 263.648 109.023 254.125 118.555C244.602 128.088 244.602 143.543 254.125 153.076C263.648 162.608 279.089 162.608 288.612 153.076Z" fill="#9E616A"/>
<path d="M288.793 112.342C285.015 108.803 280.316 106.403 275.237 105.418C270.157 104.432 264.903 104.901 260.078 106.771C259.935 106.827 259.792 106.889 259.649 106.957C259.643 106.957 259.643 106.964 259.637 106.964C259.171 107.156 258.699 107.355 258.245 107.573L257.966 107.71V107.747C257.916 107.784 257.86 107.828 257.804 107.865C257.69 107.972 257.551 108.049 257.4 108.089C252.711 108.151 248.891 109.743 246.058 112.82C242.276 116.924 240.499 123.558 241.046 131.504L241.058 131.746L241.269 131.883C243.27 133.133 245.164 134.233 246.99 135.197C248.071 135.775 249.121 136.303 250.164 136.788C250.288 136.844 250.413 136.906 250.537 136.962C261.096 141.843 270.755 142.726 280.035 139.636L280.209 139.58L284.153 132.965C284.559 135.225 285.646 137.307 287.266 138.932C288.887 140.558 290.965 141.649 293.222 142.061L294.861 142.353L297.265 142.776L297.365 142.322C299.75 131.566 296.302 119.523 288.793 112.342Z" fill="#2F2E41"/>
<path d="M348.7 163.574C340.401 159.286 351.074 143.726 348.93 134.628C346.785 125.53 331.341 122.604 330.357 113.308C329.373 104.012 327.059 94.4247 320.931 87.3711C317.015 82.8638 311.245 79.5364 305.304 80.101C303.294 80.292 301.349 80.9144 299.601 81.9258C297.853 82.9371 296.343 84.3138 295.174 85.9618C294.006 87.6099 293.206 89.4907 292.829 91.4762C292.452 93.4617 292.507 95.5052 292.99 97.4675C291.298 95.0685 286.921 95.5884 285.838 98.3171C284.874 100.743 287.002 103.681 289.507 103.896C292.784 107.947 296.536 112.246 301.67 113.063C303.324 113.326 305.182 113.133 306.39 111.972C307.598 110.811 307.692 108.49 306.259 107.623C312.711 110.188 316.493 117.17 317.451 124.052C318.408 130.935 317.084 137.898 316.211 144.792C315.338 151.686 314.962 158.937 317.662 165.339C320.853 172.902 328.198 178.323 336.215 180.062C344.231 181.8 352.768 180.101 360.024 176.273C367.28 172.445 373.331 166.601 378.274 160.049C369.76 166.101 357.98 168.368 348.7 163.574Z" fill="#2F2E41"/>
<path d="M254.415 266.105L237.571 381.237L329.517 374.301L301.996 261.038L254.415 266.105Z" fill="#FFB8B8"/>
<path d="M350.603 506.846C350.521 507.243 350.417 507.636 350.292 508.021C339.681 511.862 328.829 515 317.806 517.416C315.483 509.768 311.03 495.288 307.129 483.444C303.943 473.776 301.129 465.868 300.147 464.879C297.421 462.162 300.147 458.537 300.147 458.537L288.501 422.296L283.209 405.833L281.395 440.42L278.761 490.519L278.687 491.925C278.687 491.925 275.059 502.799 276.873 504.614C278.687 506.43 275.06 513.685 275.06 513.685L274.016 523.204C272.687 523.273 271.364 523.322 270.028 523.36L269.575 523.503L269.202 523.384C267.407 523.44 265.606 523.476 263.798 523.49C263.034 523.496 262.27 523.503 261.5 523.503C261.14 523.503 260.779 523.503 260.419 523.496C255.208 523.478 250.036 523.308 244.903 522.987L241.717 497.029L238.425 470.207C238.425 470.207 242.046 462.964 238.425 459.339C236.244 457.157 237.338 453.986 238.561 451.81C237.804 448.446 236.766 443.274 235.369 435.614C235.319 435.359 235.275 435.098 235.226 434.837C234.785 432.406 234.389 430.022 234.039 427.687C233.418 423.577 232.934 419.629 232.561 415.849C231.297 403.605 231.123 391.273 232.039 378.998C232.387 374.634 232.822 371.438 233.108 369.592C233.133 369.418 233.4 368.441 233.834 366.9C234.518 364.431 235.642 360.514 236.903 356.131C237.574 353.806 238.282 351.35 238.984 348.906C240.207 344.672 241.425 340.476 242.406 337.081V337.062C243.27 334.084 243.959 331.734 244.319 330.503C244.493 329.9 244.586 329.57 244.586 329.57C244.586 329.57 244.779 329.527 245.145 329.446C246.282 329.185 249.09 328.557 252.978 327.718C257.034 326.86 262.258 325.772 267.997 324.665C272.91 323.72 278.202 322.756 283.464 321.892C285.352 321.587 287.24 321.289 289.104 321.009C300.613 319.293 311.179 318.317 316.185 319.43C316.532 319.504 316.874 319.597 317.21 319.71C317.55 319.822 317.877 319.97 318.185 320.151C318.341 320.244 319.844 326.114 321.763 333.761C321.782 333.836 321.8 333.916 321.819 333.991C322.397 336.304 323.012 338.766 323.639 341.284C324.279 343.852 324.925 346.469 325.558 349.018C327.44 356.591 329.179 363.598 330.074 367.03C330.416 368.361 330.639 369.15 330.689 369.237C332.788 372.738 334.503 381.318 335.894 392.08C337.136 401.686 338.124 413.032 338.888 424.056C339.267 429.508 339.59 434.886 339.863 439.935C340.789 456.921 341.161 470.182 341.161 470.182C341.161 470.182 342.546 481.237 345.298 486.453C345.637 487.127 346.07 487.749 346.584 488.3C348.416 490.134 348.627 491.726 348.385 492.857C348.279 493.391 348.059 493.896 347.739 494.337C347.667 494.445 347.586 494.547 347.497 494.642C347.26 495.767 347.302 496.932 347.618 498.038C347.934 499.143 348.515 500.154 349.311 500.983C351.068 502.755 350.926 505.292 350.603 506.846Z" fill="#2F2E41"/>
<path d="M320.483 229.178C320.378 228.395 320.266 227.605 320.148 226.81C320.08 226.3 319.999 225.79 319.924 225.286C319.136 220.201 322.421 215.848 318.167 212.329C317.172 211.519 316.361 210.506 315.788 209.357L314.812 207.393L313.017 203.749L309.092 195.829L308.415 194.467C308.223 194.08 308.003 193.708 307.756 193.354C307.022 192.288 306.067 191.392 304.955 190.73L295.203 184.911C293.696 184.016 292.483 182.7 291.712 181.124L291.47 180.627C290.395 178.42 288.47 173.141 286.19 170.847L286.184 170.841C285.687 170.272 285.013 169.889 284.271 169.753L274.563 168.789C273.01 168.631 271.443 168.88 270.015 169.511C268.588 170.142 267.349 171.134 266.419 172.389L266.152 173.601L264.593 180.708L264.506 180.727C264.047 180.832 263.587 180.938 263.134 181.068C253.065 183.823 248.866 219.057 248.866 219.057C248.866 219.057 241.816 230.702 244.586 237.908L249.531 249.528C249.569 249.616 249.598 249.708 249.618 249.801C250.065 251.066 250.222 252.416 250.077 253.75L250.084 254.203L250.096 255.204L250.133 257.772L250.251 266.29L250.4 276.953L250.531 286.036L250.574 288.455L242.431 323.925C242.298 325.09 242.395 326.271 242.718 327.398C243.041 328.526 243.583 329.579 244.313 330.497L244.319 330.503C244.498 330.732 244.689 330.952 244.891 331.162L244.897 331.168C245.089 331.367 245.288 331.548 245.493 331.728C246.474 332.587 247.63 333.22 248.881 333.584C250.132 333.948 251.448 334.034 252.736 333.836L253.823 333.668H253.829L269.606 331.299H269.618L271.444 331.025H271.457L289.116 328.37H289.128L292.153 327.91C292.395 327.879 292.632 327.848 292.874 327.83L309.042 326.717C309.413 326.692 309.782 326.644 310.148 326.574H310.154C311.576 326.292 312.909 325.672 314.04 324.767C315.172 323.861 316.07 322.696 316.657 321.37C316.902 320.838 317.087 320.282 317.21 319.71C317.35 319.091 317.427 318.46 317.44 317.826L317.62 302.581L318.235 253.314C318.248 251.671 318.716 250.063 319.589 248.67C321.831 245.089 321.577 237.416 320.483 229.178Z" fill="#626689"/>
<path d="M293.375 360.759C293.147 359.502 293.198 358.211 293.523 356.976C293.848 355.742 294.44 354.593 295.256 353.612C296.072 352.631 297.094 351.841 298.248 351.297C299.403 350.754 300.662 350.471 301.938 350.467L312.025 321.116L321.86 333.893L310.773 359.807C310.637 361.952 309.719 363.973 308.194 365.487C306.668 367 304.641 367.901 302.497 368.018C300.352 368.135 298.239 367.461 296.558 366.123C294.877 364.785 293.744 362.877 293.375 360.759Z" fill="#9E616A"/>
<path d="M331.863 299.006L329.596 304.726L326.428 340.109C325.444 340.356 324.503 340.752 323.639 341.284C321.761 342.447 320.33 344.211 319.581 346.29C318.831 348.369 318.805 350.641 319.508 352.736L320.44 355.534L313.514 353.402L302.129 349.901L288.706 345.773L290.979 338.393C291.505 336.697 291.612 334.899 291.289 333.153C290.967 331.407 290.225 329.766 289.128 328.37C288.857 328.023 288.564 327.693 288.253 327.382L289.103 321.009L289.607 317.223L283.464 321.892L271.451 331.025H271.444L269.854 332.238C269.854 332.238 269.767 331.914 269.606 331.299C269.302 330.111 268.73 327.836 267.997 324.665C264.367 308.864 261.694 292.858 259.991 276.735C259.618 273.104 259.295 269.386 259.034 265.612C258.767 261.726 258.568 257.785 258.463 253.818C257.568 221.531 262.525 187.684 283.24 170.375C284.242 170.382 285.236 170.541 286.19 170.847C294.576 173.427 303.775 186.036 310.135 195.058C311.638 197.19 312.98 199.118 314.117 200.666L316.868 204.415C320.625 209.537 323.226 215.416 324.49 221.643C324.757 222.961 324.966 224.296 325.117 225.647L328.123 253.327V260.458L331.863 299.006Z" fill="#626689"/>
<path d="M15.1494 348.625C20.5455 355.025 26.3818 361.039 32.6159 366.624L490.756 367.246C496.991 361.661 502.827 355.647 508.223 349.247L15.1494 348.625Z" fill="#CCCCCC"/>
<path d="M263.798 523.49C263.034 523.496 262.27 523.503 261.5 523.503C261.14 523.503 260.779 523.503 260.419 523.496C255.208 523.478 250.036 523.308 244.903 522.987L245.027 524L244.586 522.968L234.741 500.026L241.717 497.029L254.512 491.527L258.394 504.888L262.109 517.683L263.214 521.476L263.798 523.49Z" fill="#FFB6B6"/>
<path d="M218.188 496.855L215.405 519.443C209.076 518.324 202.829 516.974 196.665 515.395V496.861L218.188 496.855Z" fill="#FFB6B6"/>
<path d="M120.054 455.223V481.939C116.277 479.508 112.571 476.98 108.936 474.354V455.223H120.054Z" fill="#CACACA"/>
<path d="M163.13 450.772V464.12C163.129 466.579 162.154 468.937 160.417 470.677C158.681 472.416 156.325 473.394 153.869 473.397H107.606C98.7746 466.952 90.3542 459.96 82.3942 452.463C78.6239 448.919 74.9633 445.263 71.4125 441.495H153.869C156.325 441.499 158.68 442.477 160.416 444.216C162.152 445.956 163.128 448.313 163.13 450.772Z" fill="#3F3D56"/>
<path d="M271.55 522.875L270.028 523.36L269.575 523.503L269.202 523.384C267.407 523.44 265.606 523.476 263.798 523.49C263.034 523.496 262.27 523.503 261.5 523.503C261.14 523.503 260.779 523.503 260.419 523.496C255.208 523.478 250.036 523.308 244.903 522.987L245.027 524L244.586 522.968C242.748 522.844 240.915 522.713 239.089 522.551L224.635 498.322L194.889 448.465L191.442 442.689C191.442 442.689 179.683 446.171 163.043 449.51C150.502 452.034 135.191 454.465 120.054 455.261C116.321 455.46 112.6 455.559 108.936 455.528C99.4632 455.466 90.3635 454.577 82.3942 452.463C78.6239 448.919 74.9633 445.263 71.4125 441.495C65.3594 435.089 59.6335 428.38 54.2566 421.395C54.1842 418.831 54.315 416.266 54.6479 413.723C54.7038 413.3 54.7597 412.871 54.828 412.436L56.5238 383.612L69.1205 381.946L88.2889 379.409L109.054 376.661L111.339 394.579C111.339 394.579 127.508 393.759 147.993 394.032C180.895 394.48 224.921 397.763 230.884 411.851C231.443 413.175 232.002 414.512 232.561 415.849C244.139 443.609 254.773 473.185 261.997 494.2C263.376 498.204 264.624 501.891 265.736 505.199C269.407 516.123 271.55 522.875 271.55 522.875Z" fill="#2F2E41"/>
<path d="M236.331 427.736C236.027 430.373 235.706 432.998 235.369 435.614C232.387 458.749 228.281 480.845 224.635 498.322C222.853 506.852 221.176 514.276 219.79 520.189C218.325 519.959 216.863 519.71 215.405 519.443C209.076 518.324 202.829 516.974 196.665 515.395C194.833 514.929 193.011 514.442 191.199 513.934L194.889 448.465L196.106 426.81L234.039 427.687L236.331 427.736Z" fill="#2F2E41"/>
<path d="M297.324 326.474C298.906 325.589 300.662 325.063 302.469 324.931C304.276 324.8 306.09 325.067 307.783 325.713C309.476 326.359 311.006 327.369 312.267 328.671C313.528 329.974 314.488 331.537 315.08 333.251L359.121 333.303L346.499 352.412L306.612 349.433C303.67 350.238 300.535 349.934 297.801 348.579C295.067 347.224 292.925 344.913 291.78 342.083C290.635 339.253 290.567 336.101 291.589 333.224C292.611 330.347 294.651 327.945 297.324 326.474Z" fill="#FFB6B6"/>
<path d="M321.335 352.316L400.653 360.203L400.862 359.935C401.262 359.423 440.966 308.551 447.637 296.441C451.741 289.165 453.236 280.703 451.873 272.46L451.828 272.258L451.67 272.125C448.435 269.411 444.373 267.882 440.153 267.79C435.934 267.697 431.809 269.046 428.458 271.615C412.348 284.105 399.358 300.171 390.514 318.546L385.496 329.004L327.288 331.504L321.335 352.316Z" fill="#626689"/>
<path d="M290.743 495.674L279.053 522.918C277.376 523.036 275.697 523.132 274.016 523.204C272.687 523.273 271.364 523.322 270.028 523.36L269.575 523.503L269.202 523.384C267.407 523.44 265.606 523.476 263.798 523.49C263.034 523.496 262.27 523.503 261.5 523.503C261.14 523.503 260.779 523.503 260.419 523.496L261.196 520.835L262.109 517.683L265.736 505.199L270.972 487.174L278.761 490.519L290.743 495.674Z" fill="#FFB6B6"/>
<path d="M374.976 497.638C368.97 500.542 362.841 503.213 356.59 505.653L350.478 495.363L370.181 486.702L374.976 497.638Z" fill="#FFB6B6"/>
<path d="M416.549 450.871V472.545C412.915 475.231 409.209 477.822 405.431 480.317V450.871H416.549Z" fill="#CACACA"/>
<path d="M455.606 437.143C452.482 440.613 449.264 443.993 445.954 447.284C438.162 455.051 429.888 462.319 421.183 469.045H371.616C370.3 469.045 368.999 468.764 367.8 468.22C366.602 467.676 365.533 466.883 364.665 465.892L364.659 465.874C363.625 464.706 362.907 463.294 362.572 461.77L362.566 461.758C362.426 461.104 362.355 460.437 362.354 459.768V446.42C362.356 443.961 363.332 441.603 365.068 439.864C366.805 438.125 369.159 437.147 371.616 437.143H455.606Z" fill="#3F3D56"/>
<path d="M476.029 385.042L470.657 408.083C471.182 411.422 471.357 414.806 471.178 418.18C468.632 421.6 466.004 424.951 463.296 428.234C460.799 431.262 458.236 434.232 455.606 437.143C452.482 440.613 449.264 443.993 445.954 447.284C437.332 449.995 427.17 451.101 416.549 451.176C412.884 451.207 409.164 451.108 405.431 450.909C390.293 450.113 374.982 447.682 362.441 445.158C359.125 444.498 356.006 443.827 353.137 443.174C347.702 441.949 343.155 440.805 339.863 439.935C336.155 438.965 334.043 438.337 334.043 438.337L319.937 461.982L307.129 483.444L283.793 522.558C282.215 522.701 280.635 522.821 279.053 522.918C277.376 523.036 275.697 523.132 274.016 523.204C272.687 523.273 271.364 523.322 270.028 523.36L269.575 523.503L269.202 523.384L263.214 521.476L261.196 520.835L253.935 518.522C253.935 518.522 255.556 513.412 258.394 504.888C259.438 501.76 260.643 498.167 261.997 494.2C266.885 479.863 273.662 460.608 281.395 440.42C283.687 434.426 286.06 428.346 288.501 422.296C290.501 417.329 292.538 412.38 294.601 407.499C298.184 399.037 315.502 394.473 335.894 392.08C336.931 391.962 337.975 391.844 339.024 391.732C349.416 390.637 360.441 390.072 370.752 389.81C375.914 389.68 380.896 389.63 385.529 389.624C387.026 389.624 388.482 389.628 389.896 389.636H389.902C393.722 389.655 397.238 389.711 400.331 389.773C400.934 389.786 401.517 389.804 402.089 389.817H402.095C402.48 389.823 402.859 389.835 403.232 389.842C409.996 390.016 414.145 390.227 414.145 390.227L415.754 377.593L416.083 375.044L416.394 372.619V372.613L416.431 372.309L416.686 372.302L421.158 372.215L458.749 371.482L479.284 371.078L476.029 385.042Z" fill="#2F2E41"/>
<path d="M379.61 495.338C378.076 496.121 376.529 496.892 374.976 497.638C368.97 500.542 362.841 503.213 356.59 505.653C354.808 506.355 353.019 507.033 351.211 507.686C351.013 507.406 350.808 507.126 350.603 506.846C341.981 495.002 331.024 479.372 319.937 461.982C315.297 454.707 310.632 447.122 306.104 439.375L338.888 424.056L342.565 422.34L353.137 443.174L362.566 461.758L364.665 465.892L379.61 495.338Z" fill="#2F2E41"/>
<path d="M427.197 236.292C443.877 236.292 457.4 222.757 457.4 206.06C457.4 189.363 443.877 175.827 427.197 175.827C410.516 175.827 396.993 189.363 396.993 206.06C396.993 222.757 410.516 236.292 427.197 236.292Z" fill="#FFB6B6"/>
<path d="M426.197 234.979C433.259 238.371 441.951 237.222 448.692 233.232C455.434 229.242 460.396 222.734 463.863 215.705C466.402 210.556 468.247 204.66 466.777 199.11C465.306 193.561 459.44 188.91 453.944 190.554C457.709 187.519 457.27 181.261 454.228 177.501C451.185 173.74 446.385 171.932 441.746 170.569C435.014 168.592 427.941 167.196 420.998 168.207C414.055 169.219 407.22 172.981 403.953 179.196C401.685 179.781 399.288 179.596 397.136 178.671C394.984 177.746 393.2 176.133 392.062 174.085C391.305 176.054 391.218 178.218 391.814 180.242C392.41 182.266 393.655 184.038 395.358 185.282L385.955 180.175C383.558 183.501 385.736 188.573 389.375 190.457C393.014 192.341 397.413 191.839 401.385 190.832C405.356 189.826 400.67 198.221 404.767 198.302C408.863 198.383 413.294 200.529 414.467 204.458C415.081 206.516 414.723 208.726 414.904 210.866C415.085 213.006 416.11 215.381 418.182 215.938C419.491 216.291 420.924 215.824 422.222 216.215C423.831 216.7 424.812 218.423 424.954 220.099C425.096 221.776 424.57 223.429 424.052 225.029C422.002 231.353 428.58 227.809 426.53 234.133L426.197 234.979Z" fill="#2F2E41"/>
<path d="M485.458 324.279C485.21 299.31 484.079 282.293 482.104 273.695C476.8 250.579 452.296 246.363 448.457 245.841C448.048 244.752 447.42 243.758 446.611 242.922C445.802 242.086 444.829 241.425 443.755 240.982C442.68 240.538 441.525 240.32 440.362 240.342C439.2 240.364 438.054 240.625 436.997 241.11L419.586 249.093C416.054 250.717 412.893 253.051 410.3 255.95C407.707 258.848 405.737 262.249 404.511 265.942L401.927 273.838L400.629 326.829L404.915 349.118L404.921 349.13L407.81 364.145L405.822 367.13L394.474 384.165L394.281 384.464L394.275 384.47L393.778 385.21C394.467 385.589 395.151 385.962 395.822 386.335C397.561 387.292 399.256 388.231 400.909 389.151C401.306 389.375 401.698 389.593 402.089 389.817H402.095C402.344 389.953 402.592 390.09 402.834 390.227C409.033 393.696 414.675 396.911 419.76 399.87C420.468 400.281 421.17 400.691 421.86 401.095C445.339 414.842 457.24 423.26 463.296 428.234C466.004 424.951 468.632 421.6 471.178 418.18C473.489 415.09 475.727 411.946 477.893 408.749C478.272 406.249 478.526 403.75 478.775 401.3C479.073 398.353 479.384 395.3 479.905 392.297C480.135 390.967 479.253 389.705 478.402 388.486C477.613 387.348 476.868 386.279 477.023 385.272C477.185 384.234 478.328 383.102 479.439 382.001C480.651 380.795 481.905 379.552 482.085 378.24C482.582 374.584 483.023 370.916 483.409 367.235C484.042 361.248 484.529 355.242 484.868 349.217C485.346 340.898 485.543 332.586 485.458 324.279Z" fill="#626689"/>
<path d="M370.487 412.417C370.999 410.677 371.885 409.071 373.085 407.711C374.284 406.352 375.766 405.272 377.427 404.548C379.088 403.824 380.888 403.474 382.699 403.521C384.51 403.569 386.289 404.013 387.91 404.823L419.411 374.016L423.751 396.508L393.172 422.315C391.632 424.95 389.18 426.929 386.28 427.876C383.38 428.822 380.233 428.671 377.437 427.451C374.641 426.231 372.389 424.027 371.108 421.256C369.827 418.485 369.606 415.34 370.487 412.417Z" fill="#FFB6B6"/>
<path d="M405.705 414.063L467.887 364.147L467.849 363.809C467.777 363.163 460.583 299.01 456.883 285.686C454.73 277.613 449.882 270.521 443.146 265.586L442.973 265.474L442.767 265.489C438.559 265.816 434.588 267.568 431.509 270.457C428.429 273.346 426.426 277.2 425.828 281.382C423.048 301.587 424.998 322.164 431.524 341.486L435.249 352.472L395.411 395.025L405.705 414.063Z" fill="#626689"/>
<path d="M87.279 235.75C102.163 235.75 114.229 223.672 114.229 208.773C114.229 193.875 102.163 181.797 87.279 181.797C72.3948 181.797 60.3287 193.875 60.3287 208.773C60.3287 223.672 72.3948 235.75 87.279 235.75Z" fill="#A0616A"/>
<path d="M51.0708 414.241L50.9238 414.035C43.0731 403.033 54.8805 376.596 56.6614 372.764C54.5467 372.077 52.7352 370.678 51.5356 368.804C50.3359 366.93 49.8222 364.699 50.082 362.488L50.8497 355.956L51.6499 349.549L45.9171 343.811L45.901 343.668L42.6019 314.773L37.8052 295.582C35.9978 288.326 36.1518 280.721 38.2515 273.545C40.3511 266.369 44.3207 259.882 49.7527 254.749L60.8404 252.986L74.3155 239.991H96.0456L103.496 247.116C118.145 259.135 121.622 253.914 138.14 276.539L126.313 307.728L132.924 353.729L132.928 362.054L136.371 365.884C137.611 367.264 138.513 368.915 139.003 370.705C139.493 372.495 139.559 374.374 139.196 376.194L138.743 378.46C140.493 379.211 142.038 380.371 143.247 381.842C144.457 383.314 145.297 385.055 145.696 386.918L146.905 392.566C147.939 393.933 154.768 403.047 154.768 405.539C154.768 405.913 154.493 406.274 153.901 406.676C149.247 409.83 123.524 416.261 112.139 411.701C100.013 406.847 51.807 414.128 51.3213 414.202L51.0708 414.241Z" fill="#3F3D56"/>
<path d="M37.3792 304.812L59.7878 300.421C68.0749 312.809 72.524 346.683 72.524 346.683L97.299 398.113C98.8218 399.039 100.072 400.352 100.923 401.919C101.774 403.486 102.194 405.251 102.142 407.034C102.089 408.817 101.566 410.554 100.625 412.068C99.6835 413.582 98.3581 414.82 96.7835 415.655C95.209 416.489 93.4415 416.892 91.6611 416.82C89.8808 416.749 88.1511 416.206 86.6484 415.248C85.1456 414.29 83.9234 412.95 83.1062 411.365C82.289 409.78 81.906 408.007 81.9963 406.226L49.6833 345.291L37.3792 304.812Z" fill="#A0616A"/>
<path d="M37.2537 310.134L36.6166 276.796L47.162 262.675C49.2423 259.91 52.0537 257.783 55.2784 256.534C58.5032 255.285 62.0128 254.963 65.4105 255.605C70.0106 256.507 74.0968 259.124 76.8432 262.926C79.5895 266.729 80.7909 271.433 80.2045 276.088C78.4146 290.204 74.351 307.87 65.1574 311.867L65.0642 311.907L74.5926 345.263L39.2571 350.204L37.2537 310.134Z" fill="#3F3D56"/>
<path d="M170.341 307.188C170.341 307.188 143.449 286.148 128.864 283.126L115.955 301.979L150.867 323.394L218.839 343.067C220.029 344.39 221.548 345.374 223.242 345.92C224.935 346.466 226.742 346.553 228.48 346.174C230.218 345.794 231.825 344.961 233.137 343.759C234.45 342.557 235.421 341.029 235.952 339.33C236.484 337.63 236.557 335.821 236.163 334.084C235.77 332.348 234.925 330.746 233.714 329.442C232.502 328.138 230.968 327.179 229.266 326.66C227.564 326.142 225.756 326.083 224.024 326.491L170.341 307.188Z" fill="#A0616A"/>
<path d="M123.029 311.416L95.0033 293.392L89.1513 276.763C88.0144 273.495 87.8134 269.973 88.5712 266.596C89.329 263.219 91.0153 260.121 93.4395 257.653C96.7482 254.329 101.194 252.388 105.879 252.22C110.563 252.052 115.137 253.671 118.674 256.75C129.395 266.095 143.211 269.227 141.411 279.096L146.573 279.851L172.967 299.916L157.402 332.051L123.029 311.416Z" fill="#3F3D56"/>
<path d="M56.7099 191.048C59.7361 186.362 65.415 183.239 70.9203 184.116C71.4327 180.6 72.8992 177.291 75.1601 174.551C77.421 171.81 80.3897 169.744 83.7429 168.575C87.0961 167.407 90.7052 167.182 94.1774 167.924C97.6496 168.667 100.852 170.349 103.435 172.787C105.056 171.496 107.412 171.428 109.336 172.196C111.231 173.058 112.879 174.382 114.13 176.048C117.289 179.991 119.321 184.718 120.009 189.725C120.697 194.732 120.016 199.833 118.038 204.483C118.711 202.035 116.259 199.732 113.783 199.182C111.306 198.633 108.708 199.153 106.197 198.795C102.978 198.337 100.084 196.467 96.8603 196.047C94.1507 195.693 91.4259 196.389 88.7836 197.086C86.1414 197.783 83.4235 198.493 80.7102 198.171C77.9966 197.848 74.5013 208.142 74.5482 215.391C74.5571 216.765 74.2744 218.529 72.933 218.821C71.2811 219.18 70.3239 216.898 68.7515 216.276C67.3507 215.722 65.6714 216.749 65.1837 218.175C64.9855 218.905 64.9643 219.671 65.1218 220.41C65.2793 221.15 65.6109 221.841 66.0891 222.426C67.0556 223.586 68.2029 224.582 69.4867 225.376L68.8392 225.915C67.762 227.34 65.5277 227.401 63.9751 226.52C62.4227 225.639 61.4025 224.071 60.4828 222.54C57.6105 217.758 55.0909 212.663 54.0772 207.176C53.0635 201.689 53.6839 195.734 56.7099 191.048Z" fill="#2F2E41"/>
<path opacity="0.2" d="M293.386 236.382C296.12 247.783 297.381 259.487 297.139 271.208C296.906 282.931 295.194 294.577 292.042 305.87C290.263 312.247 288.019 318.485 285.329 324.534C284.845 325.621 286.45 326.57 286.938 325.475C291.795 314.576 295.23 303.096 297.157 291.319C299.092 279.539 299.526 267.561 298.449 255.672C297.839 249.006 296.747 242.394 295.183 235.887C294.902 234.72 293.105 235.214 293.386 236.382Z" fill="black"/>
<path opacity="0.2" d="M467.363 316.155L451.786 354.216C449.279 360.342 446.847 366.504 444.238 372.587C441.889 378.064 439.21 383.565 435.256 388.08C431.265 392.638 425.897 396.337 419.764 397.06C418.587 397.199 418.573 399.066 419.764 398.926C425.366 398.265 430.387 395.478 434.442 391.622C438.827 387.453 441.917 382.143 444.44 376.694C447.252 370.619 449.643 364.339 452.178 358.146L460.142 338.686L469.16 316.651C469.614 315.541 467.812 315.057 467.363 316.155Z" fill="black"/>
<path d="M282.718 350.702C282.992 351.499 283.511 352.19 284.201 352.673C284.891 353.157 285.716 353.41 286.559 353.395L303.014 352.971C303.862 352.954 304.683 352.663 305.352 352.141C306.022 351.619 306.505 350.895 306.729 350.075L309.057 325.152C309.883 325.526 310.783 325.711 311.69 325.693C312.478 325.673 313.254 325.498 313.974 325.178C314.694 324.858 315.345 324.399 315.888 323.828C316.431 323.256 316.856 322.583 317.139 321.847C317.422 321.111 317.558 320.326 317.538 319.537C317.518 318.749 317.344 317.972 317.024 317.251C316.704 316.53 316.246 315.879 315.675 315.335C315.104 314.792 314.431 314.366 313.696 314.082C312.96 313.799 312.176 313.663 311.388 313.683C311.026 313.682 310.665 313.72 310.31 313.795C309.925 313.378 309.456 313.046 308.935 312.821C308.413 312.596 307.85 312.482 307.283 312.488L281.971 313.142C281.761 313.15 281.552 313.176 281.346 313.22C280.791 313.323 280.265 313.545 279.802 313.869C279.34 314.193 278.952 314.613 278.666 315.1C278.379 315.587 278.2 316.129 278.14 316.691C278.08 317.253 278.141 317.822 278.32 318.358L282.718 350.702ZM309.535 323.459L311.192 317.52C311.38 316.834 311.385 316.11 311.204 315.422C311.285 315.422 311.356 315.383 311.436 315.383C312.572 315.36 313.671 315.788 314.492 316.575C315.314 317.361 315.79 318.441 315.816 319.578C315.843 320.715 315.418 321.817 314.634 322.641C313.851 323.465 312.773 323.944 311.637 323.974C310.903 323.997 310.176 323.819 309.535 323.459Z" fill="#2F2E41"/>
<path d="M281.346 313.22C281.886 316.306 287.949 318.476 295.239 318.099C301.943 317.789 307.424 315.433 308.428 312.641C308.057 312.531 307.67 312.479 307.283 312.488L281.971 313.142C281.761 313.15 281.552 313.176 281.346 313.22Z" fill="#3F3D56"/>
<path d="M227.91 317.115C228.088 316.578 228.149 316.01 228.089 315.448C228.03 314.886 227.85 314.343 227.564 313.856C227.277 313.37 226.889 312.95 226.427 312.625C225.964 312.301 225.438 312.08 224.883 311.976C224.677 311.932 224.468 311.906 224.258 311.899L198.947 311.244C198.379 311.239 197.816 311.352 197.295 311.577C196.773 311.802 196.305 312.134 195.919 312.552C195.565 312.476 195.203 312.438 194.841 312.44C193.25 312.4 191.708 312.994 190.555 314.092C189.401 315.19 188.731 316.701 188.691 318.294C188.651 319.886 189.245 321.43 190.342 322.584C191.438 323.738 192.948 324.409 194.54 324.449C195.446 324.468 196.346 324.283 197.172 323.908L199.5 348.832C199.724 349.651 200.207 350.376 200.877 350.898C201.547 351.42 202.367 351.711 203.215 351.727L219.671 352.151C220.513 352.166 221.338 351.914 222.028 351.43C222.718 350.946 223.238 350.256 223.511 349.458L227.91 317.115ZM194.592 322.73C193.456 322.701 192.378 322.221 191.595 321.397C190.811 320.573 190.386 319.472 190.413 318.335C190.44 317.198 190.916 316.117 191.737 315.331C192.558 314.545 193.657 314.116 194.793 314.14C194.873 314.14 194.944 314.178 195.025 314.178C194.845 314.867 194.849 315.59 195.037 316.276L196.694 322.216C196.053 322.575 195.327 322.753 194.592 322.73Z" fill="#2F2E41"/>
<path d="M224.883 311.976C224.344 315.063 218.281 317.232 210.99 316.855C204.287 316.546 198.805 314.19 197.801 311.397C198.173 311.287 198.559 311.236 198.947 311.244L224.258 311.899C224.468 311.906 224.677 311.932 224.883 311.976Z" fill="#3F3D56"/>
<path d="M200.895 257.835C202.163 256.908 203.619 256.27 205.159 255.967C206.7 255.664 208.289 255.702 209.813 256.08C211.338 256.458 212.761 257.166 213.983 258.154C215.204 259.142 216.194 260.386 216.884 261.798L254.782 257.209L245.929 274.978L211.297 276.612C208.85 277.614 206.121 277.682 203.626 276.804C201.132 275.926 199.046 274.163 197.764 271.849C196.482 269.534 196.092 266.829 196.669 264.246C197.246 261.664 198.75 259.382 200.895 257.835Z" fill="#9E616A"/>
<path d="M324.49 221.643C323.372 223.838 322.011 226.393 320.483 229.179C315.117 238.996 307.744 251.667 302.067 261.31C297.216 269.535 293.594 275.566 293.495 275.734L293.34 275.983L259.991 276.735L252.835 276.897L250.4 276.953L224.269 277.543L224.517 275.989L226.958 260.582L227.207 259.009L250.096 255.204L258.463 253.818L277.022 250.734L280.246 241.209C285.924 224.468 295.412 209.277 307.961 196.836C308.328 196.481 308.7 196.146 309.092 195.829C309.433 195.555 309.781 195.294 310.135 195.058C311.638 197.19 312.98 199.118 314.117 200.666L316.868 204.415C320.625 209.537 323.226 215.416 324.49 221.643Z" fill="#626689"/>
<path d="M185.82 278.58C186.094 279.378 186.613 280.068 187.303 280.552C187.993 281.036 188.818 281.288 189.661 281.273L206.116 280.849C206.964 280.833 207.785 280.542 208.454 280.02C209.124 279.498 209.607 278.773 209.831 277.954L212.159 253.03C212.986 253.405 213.885 253.59 214.792 253.571C216.383 253.531 217.893 252.86 218.99 251.706C220.087 250.552 220.68 249.008 220.64 247.416C220.6 245.823 219.93 244.312 218.777 243.214C217.623 242.116 216.082 241.522 214.491 241.562C214.128 241.56 213.767 241.598 213.412 241.674C213.027 241.256 212.558 240.924 212.037 240.699C211.515 240.474 210.953 240.361 210.385 240.366L185.073 241.021C184.863 241.028 184.654 241.054 184.449 241.098C183.893 241.202 183.367 241.423 182.905 241.747C182.442 242.072 182.054 242.491 181.768 242.978C181.481 243.465 181.302 244.008 181.242 244.57C181.182 245.132 181.244 245.7 181.422 246.237L185.82 278.58ZM212.637 251.338L214.294 245.398C214.482 244.712 214.487 243.989 214.307 243.3C214.387 243.3 214.458 243.262 214.538 243.262C215.674 243.238 216.774 243.667 217.595 244.453C218.416 245.239 218.892 246.32 218.918 247.457C218.945 248.594 218.52 249.695 217.737 250.519C216.953 251.343 215.875 251.823 214.739 251.852C214.005 251.875 213.278 251.697 212.637 251.338Z" fill="#CCCCCC"/>
<path d="M184.449 241.098C184.988 244.185 191.051 246.354 198.341 245.977C205.045 245.668 210.526 243.312 211.53 240.519C211.159 240.409 210.772 240.358 210.385 240.366L185.073 241.021C184.863 241.028 184.654 241.054 184.449 241.098Z" fill="#3F3D56"/>
</g>
<defs>
<clipPath id="clip0_130_1018">
<rect width="523" height="524" fill="white"/>
</clipPath>
</defs>
</svg>
