<svg width="21" height="21" viewBox="0 0 21 21" fill="none" xmlns="http://www.w3.org/2000/svg">
<path id="Vector" d="M12.3175 15.4971L10.5348 13.7292C9.71554 12.9168 9.30583 12.5105 8.83416 12.3581C8.41926 12.224 7.97271 12.224 7.55773 12.3581C7.08609 12.5105 6.6764 12.9168 5.85704 13.7292L1.70612 17.9099M12.3175 15.4971L12.6718 15.1456C13.5085 14.316 13.9267 13.9012 14.4067 13.7499C14.8287 13.6167 15.2822 13.6219 15.7012 13.7647C16.1774 13.9272 16.5861 14.3514 17.4033 15.2L18.2709 16.0808M12.3175 15.4971L16.4232 19.6752M1.70612 17.9099C1.738 18.1802 1.79321 18.3925 1.88888 18.5803C2.0879 18.9709 2.40551 19.2885 2.79613 19.4875C3.24022 19.7138 3.82156 19.7138 4.98425 19.7138H14.9492C15.5941 19.7138 16.0602 19.7138 16.4232 19.6752M1.70612 17.9099C1.6626 17.5408 1.6626 17.0633 1.6626 16.3922V6.42718C1.6626 5.2645 1.6626 4.68314 1.88888 4.23906C2.0879 3.84842 2.40551 3.53083 2.79613 3.3318C3.24022 3.10552 3.82156 3.10552 4.98425 3.10552H8.92872M16.4232 19.6752C16.7146 19.6442 16.9396 19.5883 17.1374 19.4875C17.528 19.2885 17.8456 18.9709 18.0446 18.5803C18.2709 18.1362 18.2709 17.5548 18.2709 16.3922V12.4477M16.1948 8.29561V5.18156M16.1948 5.18156V2.0675M16.1948 5.18156H19.3089M16.1948 5.18156H13.0808" stroke="url(#paint0_linear_126_500)" stroke-width="2.20579" stroke-linecap="round" stroke-linejoin="round"/>
<defs>
<linearGradient id="paint0_linear_126_500" x1="10.4857" y1="0.964611" x2="21.5147" y2="21.9196" gradientUnits="userSpaceOnUse">
<stop stop-color="#D64975"/>
<stop offset="1" stop-color="#292B3B"/>
</linearGradient>
</defs>
</svg>
